<svg width="28" height="22" viewBox="0 0 28 22" fill="none" xmlns="http://www.w3.org/2000/svg">
    <path fill-rule="evenodd" clip-rule="evenodd" d="M28 2C28 3.10457 27.1046 4 26 4H2C0.895431 4 0 3.10457 0 2C0 0.895431 0.895431 0 2 0H26C27.1046 0 28 0.895431 28 2Z" fill="black" />
    <path fill-rule="evenodd" clip-rule="evenodd" d="M28 11C28 12.1046 27.1046 13 26 13H2C0.895431 13 0 12.1046 0 11C0 9.89543 0.895431 9 2 9H26C27.1046 9 28 9.89543 28 11Z" fill="black" />
    <path fill-rule="evenodd" clip-rule="evenodd" d="M28 20C28 21.1046 27.1046 22 26 22H2C0.895431 22 0 21.1046 0 20C0 18.8954 0.895431 18 2 18H26C27.1046 18 28 18.8954 28 20Z" fill="black" />
</svg>
    