<svg width="23" height="23" viewBox="0 0 23 23" fill="none" xmlns="http://www.w3.org/2000/svg">
    <path fill-rule="evenodd" clip-rule="evenodd" d="M21.3853 21.2132C20.6042 21.9943 19.3379 21.9943 18.5568 21.2132L1.58627 4.24264C0.805226 3.46159 0.805226 2.19526 1.58627 1.41421C2.36732 0.633165 3.63365 0.633166 4.4147 1.41421L21.3853 18.3848C22.1663 19.1658 22.1663 20.4322 21.3853 21.2132Z" fill="black" />
    <path fill-rule="evenodd" clip-rule="evenodd" d="M14 10.5C14 11.3284 13.3284 12 12.5 12H10.5C9.67157 12 9 11.3284 9 10.5C9 9.67157 9.67157 9 10.5 9H12.5C13.3284 9 14 9.67157 14 10.5Z" fill="black" />
    <path fill-rule="evenodd" clip-rule="evenodd" d="M21.2132 1.61522C21.9943 2.39627 21.9943 3.6626 21.2132 4.44365L4.24264 21.4142C3.46159 22.1953 2.19526 22.1953 1.41421 21.4142C0.633165 20.6332 0.633166 19.3668 1.41421 18.5858L18.3848 1.61522C19.1658 0.834175 20.4322 0.834175 21.2132 1.61522Z" fill="black" />
</svg>
    