<svg width="191" height="16" viewBox="0 0 191 16" fill="none" xmlns="http://www.w3.org/2000/svg">
    <path d="M4.18325 1.09923H0.717773L5.81151 15.6785H9.83175L14.9183 1.09923H11.46L7.88647 12.176H7.74958L4.18325 1.09923Z" fill="black" />
    <path d="M16.6942 15.6785H26.6656V13.1371H19.8139V9.65598H26.1252V7.11458H19.8139V3.64063H26.6368V1.09923H16.6942V15.6785Z" fill="black" />
    <path d="M41.4587 1.09923H38.3534V10.2682H38.2238L31.8548 1.09923H29.117V15.6785H32.2366V6.50237H32.3447L38.7641 15.6785H41.4587V1.09923Z" fill="black" />
    <path d="M43.4742 3.64063H47.9916V15.6785H51.0752V3.64063H55.5925V1.09923H43.4742V3.64063Z" fill="black" />
    <path d="M66.7022 1.09923V10.3038C66.7022 11.9696 65.5207 13.1727 63.7051 13.1727C61.8967 13.1727 60.7079 11.9696 60.7079 10.3038V1.09923H57.5883V10.5672C57.5883 13.7564 60.0235 15.8849 63.7051 15.8849C67.3723 15.8849 69.8219 13.7564 69.8219 10.5672V1.09923H66.7022Z" fill="black" />
    <path d="M72.3886 15.6785H75.5082V10.5102H77.7849L80.5803 15.6785H84.0242L80.8901 10.0119C82.5688 9.30005 83.4982 7.85494 83.4982 5.86168C83.4982 2.96434 81.5602 1.09923 78.21 1.09923H72.3886V15.6785ZM75.5082 8.0329V3.61927H77.612C79.4132 3.61927 80.2849 4.40945 80.2849 5.86168C80.2849 7.30679 79.4132 8.0329 77.6264 8.0329H75.5082Z" fill="black" />
    <path d="M85.7029 15.6785H95.6742V13.1371H88.8225V9.65598H95.1339V7.11458H88.8225V3.64063H95.6454V1.09923H85.7029V15.6785Z" fill="black" />
    <path d="M115.84 6.20338C115.43 2.83621 112.85 0.899902 109.435 0.899902C105.537 0.899902 102.562 3.61927 102.562 8.38884C102.562 13.1442 105.487 15.8778 109.435 15.8778C113.218 15.8778 115.502 13.3933 115.84 10.7096L112.685 10.6953C112.389 12.2543 111.15 13.1513 109.486 13.1513C107.245 13.1513 105.725 11.5069 105.725 8.38884C105.725 5.35625 107.223 3.62639 109.507 3.62639C111.215 3.62639 112.447 4.60166 112.685 6.20338H115.84Z" fill="black" />
    <path d="M120.343 15.6785L121.438 12.354H126.763L127.858 15.6785H131.201L126.114 1.09923H122.094L117 15.6785H120.343ZM122.231 9.94785L124.046 4.43081H124.162L125.977 9.94785H122.231Z" fill="black" />
    <path d="M132.977 15.6785H136.096V10.9516H138.719C142.112 10.9516 144.086 8.95122 144.086 6.03965C144.086 3.14231 142.148 1.09923 138.798 1.09923H132.977V15.6785ZM136.096 8.48139V3.61927H138.2C140.001 3.61927 140.873 4.58742 140.873 6.03965C140.873 7.48476 140.001 8.48139 138.215 8.48139H136.096Z" fill="black" />
    <path d="M149.232 1.09923H146.113V15.6785H149.232V1.09923Z" fill="black" />
    <path d="M151.237 3.64063H155.754V15.6785H158.838V3.64063H163.355V1.09923H151.237V3.64063Z" fill="black" />
    <path d="M178.257 8.38884C178.257 3.61927 175.259 0.899902 171.347 0.899902C167.413 0.899902 164.438 3.61927 164.438 8.38884C164.438 13.1371 167.413 15.8778 171.347 15.8778C175.259 15.8778 178.257 13.1584 178.257 8.38884ZM175.094 8.38884C175.094 11.4784 173.61 13.1513 171.347 13.1513C169.078 13.1513 167.601 11.4784 167.601 8.38884C167.601 5.2993 169.078 3.62639 171.347 3.62639C173.61 3.62639 175.094 5.2993 175.094 8.38884Z" fill="black" />
    <path d="M180.567 15.6785H190.013V13.1371H183.687V1.09923H180.567V15.6785Z" fill="black" />
</svg>
    